<svg xmlns="http://www.w3.org/2000/svg" viewBox="0 0 569.91 53.81"><defs><style>.cls-1{fill:#f63;}.cls-2{fill:#231f20;}</style></defs><g id="Layer_2" data-name="Layer 2"><g id="Layer_1-2" data-name="Layer 1"><rect class="cls-1" x="523.73" y="0.92" width="37.03" height="51.96"/><path class="cls-2" d="M333.23,10h32.16V.92H333.23Z"/><path class="cls-2" d="M333.33,43.8h-.1v9.08h32.16V43.8Z"/><path class="cls-2" d="M365.39,31V22.71H333.23V31Z"/><path class="cls-1" d="M391.17,11.74a6.24,6.24,0,0,0-1.62,4.43,7.63,7.63,0,0,0,.35,2.27,4.9,4.9,0,0,0,1.23,2,6,6,0,0,0,2.35,1.38,11.75,11.75,0,0,0,3.77.5h12.16a23.75,23.75,0,0,1,8.7,1.35,14,14,0,0,1,4.85,3V10H396.33C394,10,392.25,10.58,391.17,11.74Z"/><path class="cls-1" d="M416.07,42a6.47,6.47,0,0,0,1.74-4.66,7.66,7.66,0,0,0-.39-2.42,4.85,4.85,0,0,0-1.31-2.08,6.56,6.56,0,0,0-2.5-1.42,12.34,12.34,0,0,0-4-.54H397.56A23.54,23.54,0,0,1,389,29.56a13.18,13.18,0,0,1-5.2-3.46,12.22,12.22,0,0,1-2.43-4.22V43.8h29.26Q414.34,43.8,416.07,42Z"/><path class="cls-2" d="M426.16,32.1a11.71,11.71,0,0,0-2.7-4.93c-.16-.17-.33-.33-.5-.49a14,14,0,0,0-4.85-3,23.75,23.75,0,0,0-8.7-1.35H397.25a11.75,11.75,0,0,1-3.77-.5,6,6,0,0,1-2.35-1.38,4.9,4.9,0,0,1-1.23-2,7.63,7.63,0,0,1-.35-2.27,6.24,6.24,0,0,1,1.62-4.43c1.08-1.16,2.8-1.73,5.16-1.73H423V.92H395.67A21.92,21.92,0,0,0,389.25,2a13.19,13.19,0,0,0-5.05,3.12,11.9,11.9,0,0,0-2.81,4.62l0,.11a19.16,19.16,0,0,0-.89,6,20.48,20.48,0,0,0,.73,5.39c.06.21.12.42.19.63a12.22,12.22,0,0,0,2.43,4.22,13.18,13.18,0,0,0,5.2,3.46,23.54,23.54,0,0,0,8.54,1.31h12.09a12.34,12.34,0,0,1,4,.54,6.56,6.56,0,0,1,2.5,1.42,4.85,4.85,0,0,1,1.31,2.08,7.66,7.66,0,0,1,.39,2.42A6.47,6.47,0,0,1,416.07,42q-1.72,1.82-5.42,1.81H381.39v9.08h28.95a21.94,21.94,0,0,0,7.58-1.15,13.64,13.64,0,0,0,5.12-3.2A12.28,12.28,0,0,0,426,43.72a19,19,0,0,0,.93-6.08A21.61,21.61,0,0,0,426.16,32.1Z"/><path class="cls-2" d="M446.06.92v52H437V.92Z"/><path class="cls-1" d="M469.19,14q-3.42,4-3.43,13t3.39,12.9q3.39,4,11,4h8.62q3.84,0,5.54-2A8,8,0,0,0,496,36.49a7,7,0,0,0-1.57-4.89,6.19,6.19,0,0,0-4.81-1.73H478.08V21.94h12.47q7,0,10.39,4c.22.26.42.53.62.8V10h-21.4Q472.62,10,469.19,14Z"/><path class="cls-2" d="M501.56,26.7c-.2-.27-.4-.54-.62-.8q-3.39-4-10.39-4H478.08v7.93h11.55a6.19,6.19,0,0,1,4.81,1.73A7,7,0,0,1,496,36.49a8,8,0,0,1-1.69,5.27q-1.69,2-5.54,2h-8.62q-7.62,0-11-4t-3.39-12.9q0-9,3.43-13t11-4h21.4V.92h-21.4q-11.4,0-17.44,6.43t-6,19.59q0,13.1,6,19.52t17.44,6.42h8a19.22,19.22,0,0,0,7.43-1.27A13.11,13.11,0,0,0,503.44,43a22.34,22.34,0,0,0,.89-6.35A16.61,16.61,0,0,0,501.56,26.7Z"/><path class="cls-2" d="M523.73,52.88h-9.09V11.32a11.5,11.5,0,0,1,2.93-8.2q2.92-3.12,9-3.12,5.4,0,8.2,2.58a17.37,17.37,0,0,1,4.43,7L554.36,42.8a4.64,4.64,0,0,0,1.24,1.54,3.21,3.21,0,0,0,2.07.62,3.09,3.09,0,0,0,2.27-.81,2.84,2.84,0,0,0,.81-2.12V.92h9.16V42.41a11.51,11.51,0,0,1-3,8.28q-3,3.12-9,3.12a15.76,15.76,0,0,1-4.73-.66,10.17,10.17,0,0,1-3.54-1.92,12.33,12.33,0,0,1-2.58-3,20.7,20.7,0,0,1-1.85-4L530.12,11a3.36,3.36,0,0,0-3.24-2.23,3.22,3.22,0,0,0-2.35.8,3,3,0,0,0-.8,2.2Z"/><path class="cls-1" d="M64,17.12a7.2,7.2,0,0,0-2-5.31q-2-2-6.31-2H37.39a1,1,0,0,0-.93.45V23.84H55.63Q64,23.84,64,17.12Z"/><path class="cls-1" d="M54.58,53.23c2.91,0,8.48-6.76,9.82-8s0-5.26,0-7.57q0-7.18-8.4-7.19H36.48L17.63,53.31Z"/><path class="cls-2" d="M88.64,10.29H120.8V1.2H88.64Z"/><path class="cls-2" d="M88.73,44.08h-.09v9.08H120.8V44.08Z"/><path class="cls-2" d="M120.8,31.22V23H88.64v8.24H120.8Z"/><path class="cls-1" d="M200.5,14.39q-3.42,4-3.42,13t3.39,12.89q3.38,4,11,4h8.63q3.84,0,5.54-2a8,8,0,0,0,1.69-5.27A7,7,0,0,0,225.75,32a6.2,6.2,0,0,0-4.81-1.73H209.4V22.36h12.47q7,0,10.39,4a9.38,9.38,0,0,1,.61.8V10.43h-21.4Q203.94,10.43,200.5,14.39Z"/><path class="cls-2" d="M232.87,27.13a9.38,9.38,0,0,0-.61-.8q-3.39-4-10.39-4H209.4v7.93h11.54A6.2,6.2,0,0,1,225.75,32a7,7,0,0,1,1.58,4.89,8,8,0,0,1-1.69,5.27q-1.69,2-5.54,2h-8.63q-7.62,0-11-4t-3.39-12.89q0-9,3.42-13t11-4h21.4V1.35h-21.4q-10.84,0-16.84,5.83c-.2.19-.4.39-.59.59q-6,6.44-6,19.6t6,19.51q6,6.42,17.43,6.43h8A19.41,19.41,0,0,0,226.91,52a13.62,13.62,0,0,0,5-3.47,13.26,13.26,0,0,0,2.85-5.15,22.1,22.1,0,0,0,.88-6.36A16.58,16.58,0,0,0,232.87,27.13Z"/><path class="cls-2" d="M70.22,31.56a12.7,12.7,0,0,0-5.7-4.43A11.61,11.61,0,0,0,70.1,22.9,12.74,12.74,0,0,0,72,15.59a16.28,16.28,0,0,0-1-5.78,11.46,11.46,0,0,0-3.12-4.5,14.59,14.59,0,0,0-5.39-2.92,26,26,0,0,0-7.89-1H27.71V35.29a11.92,11.92,0,0,1-.5,3.51,6.61,6.61,0,0,1-1.73,2.85,8.64,8.64,0,0,1-3.27,1.88,15.87,15.87,0,0,1-5.12.69H0v9.09H17.63A25.5,25.5,0,0,0,26.44,52a15.71,15.71,0,0,0,6-3.73,14.68,14.68,0,0,0,3.38-5.66,22.58,22.58,0,0,0,1.08-7.2V30.83H55.06q8,0,8,6.7a6.47,6.47,0,0,1-1.92,5c-1.29,1.18-3.31,1.77-6.08,1.77H41.74v9H54.82a24.2,24.2,0,0,0,7.89-1,15.13,15.13,0,0,0,5.39-3,11.5,11.5,0,0,0,3.12-4.51,16,16,0,0,0,1-5.77A12.8,12.8,0,0,0,70.22,31.56Zm-15.4-8.27h-18V10.35a.87.87,0,0,1,.48-.07H54.9c2.77,0,4.79.61,6,1.84a6.6,6.6,0,0,1,1.89,4.93Q62.83,23.29,54.82,23.29Z"/><path class="cls-1" d="M164.44,10.19H144l12.45,14.08h8a8.11,8.11,0,0,0,3.31-.61A6.12,6.12,0,0,0,170,22a6.78,6.78,0,0,0,1.27-2.31,8.79,8.79,0,0,0,.42-2.69A7.22,7.22,0,0,0,170,12.23C168.79,10.87,167,10.19,164.44,10.19Z"/><path class="cls-2" d="M163.9,32.72l5.94-.42v0a14.68,14.68,0,0,0,3.27-1.3,14.27,14.27,0,0,0,1.81-1.16,14,14,0,0,0,3.39-3.74,16.27,16.27,0,0,0,1.93-4.54,20.16,20.16,0,0,0,.61-4.89,18.35,18.35,0,0,0-1-5.92,13.13,13.13,0,0,0-3-5,14.9,14.9,0,0,0-5.21-3.39,20.34,20.34,0,0,0-7.54-1.27H136v9.09l12.53,14.08H144.2q-4.32,0-6.24,1.93A7.56,7.56,0,0,0,136.11,31c0,.49-.07,1-.07,1.53V53.06h9.08V34.28A1.16,1.16,0,0,1,146.43,33h9.8l18.09,20.34,8,.24ZM144,10.19h20.45c2.52,0,4.35.68,5.51,2A7.22,7.22,0,0,1,171.68,17a8.79,8.79,0,0,1-.42,2.69A6.78,6.78,0,0,1,170,22a6.12,6.12,0,0,1-2.24,1.62,8.11,8.11,0,0,1-3.31.61h-8Z"/><polygon class="cls-2" points="182.74 53.81 182.3 53.8 182.31 53.81 182.74 53.81"/><rect class="cls-1" x="88.64" y="10.29" width="32.16" height="12.7"/><rect class="cls-1" x="88.64" y="31.3" width="32.16" height="12.7"/><path class="cls-1" d="M306.34,39.8q3.39-4,3.39-12.93T306.38,14q-3.35-4-11-4H282.8V43.8h12.61Q303,43.8,306.34,39.8Z"/><path class="cls-2" d="M312.85,7.31q-6-6.39-17.44-6.39H282.8V10h12.61q7.62,0,11,4t3.35,12.9q0,8.93-3.39,12.93t-10.93,4H282.8v9.08h12.61q11.47,0,17.44-6.39t6-19.55Q318.81,13.71,312.85,7.31Z"/><rect class="cls-1" x="333.23" y="10.01" width="32.16" height="12.7"/><rect class="cls-1" x="333.23" y="30.95" width="32.16" height="12.85"/></g></g></svg>