<svg xmlns="http://www.w3.org/2000/svg" viewBox="0 0 420.46 420.46"><defs><style>.a{fill:#f63;}.b{fill:#fff;stroke:#fff;stroke-linejoin:round;stroke-width:3px;}</style></defs><rect class="a" width="420.46" height="420.46"/><path d="M352.33,157.4q0-16.86-10-27t-31.94-10.12H217.63a4.75,4.75,0,0,0-4.7,2.32v68.91H310Q352.34,191.54,352.33,157.4Z"/><path d="M315,343q20.42,0,29.86-15.45t9.45-43.66q0-58.44-39.31-58.44L210.29,222,117.88,343Z"/><path class="b" d="M383.9,231A64.22,64.22,0,0,0,355,208.51q18.76-7.44,28.34-21.51t9.58-37.14a81.92,81.92,0,0,0-5.08-29.32A58.36,58.36,0,0,0,372,97.67a74.56,74.56,0,0,0-27.36-14.85,133.11,133.11,0,0,0-40.07-5.28H167.13V250a60.82,60.82,0,0,1-2.54,17.78,33.32,33.32,0,0,1-8.8,14.47,43.55,43.55,0,0,1-16.61,9.58,82,82,0,0,1-26,3.52H26.39v46.13h89.53q26.19,0,44.76-6.85a79.36,79.36,0,0,0,30.3-19,73.92,73.92,0,0,0,17.2-28.73,116.16,116.16,0,0,0,5.47-36.55V227.27h93.23q40.64,0,40.66,34,0,16.43-9.77,25.41t-30.89,9h-58v45.74h56.86A128.79,128.79,0,0,0,345.78,336a76.42,76.42,0,0,0,27.37-15.05A58.09,58.09,0,0,0,389,298a81.48,81.48,0,0,0,5.08-29.32Q394.06,245.67,383.9,231Zm-78.19-42H213.65V123.75a4.58,4.58,0,0,1,3.32-.86H306.1q21.11,0,30.69,9.38t9.58,25Q346.37,189,305.71,189Z"/></svg>